<?xml version="1.0" encoding="utf-8"?>
<svg version="1.1" xmlns="http://www.w3.org/2000/svg" xmlns:xlink="http://www.w3.org/1999/xlink">
    <svg id="radish-icon" viewBox="0 0 24 24">
        <g fill="none" stroke="currentColor" stroke-linejoin="round" stroke-width="2">
            <path stroke-linecap="round"
                d="M16 10H8c-2.188 0-3.698 1.415-3.935 3.282c-.325 2.56.529 4.105 3.634 5.128c1.394.46 2.579 1.464 3.01 2.868l.223.722l.095-.082a8 8 0 0 1 2.175-1.331l1.921-.789c3.286-1.348 5.22-3.408 4.826-6.516C19.712 11.415 18.188 10 16 10m-4.036-3.03s-3.075.306-4.685-1.035C5.669 4.593 6.036 2.03 6.036 2.03s3.075-.306 4.686 1.035c1.61 1.342 1.242 3.905 1.242 3.905" />
            <path stroke-linecap="round"
                d="M12.036 6.97s3.075.306 4.685-1.035c1.61-1.342 1.243-3.905 1.243-3.905s-3.075-.306-4.685 1.035c-1.61 1.342-1.243 3.905-1.243 3.905" />
            <path d="M19 11.5c-.5 1-3.134 1.5-7 1.5s-6.5-.5-7-1.5" />
        </g>
    </svg>
    <svg id="arrow-left" viewBox="0 0 24 24">
        <path fill="currentColor"
            d="M8 17.175V6.825q0-.425.3-.713t.7-.287q.125 0 .263.037t.262.113l8.15 5.175q.225.15.338.375t.112.475t-.112.475t-.338.375l-8.15 5.175q-.125.075-.262.113T9 18.175q-.4 0-.7-.288t-.3-.712m2-1.825L15.25 12L10 8.65z" />
    </svg>
    <svg id="leaves-cancel" viewBox="0 0 24 24">
        <path fill="currentColor"
            d="M6.75 2.5A4.25 4.25 0 0 1 11 6.75V11H6.75a4.25 4.25 0 0 1 0-8.5m0 10.5H11v4.25A4.25 4.25 0 1 1 6.75 13m10.5-10.5a4.25 4.25 0 0 1 0 8.5H13V6.75a4.25 4.25 0 0 1 4.25-4.25M13 13h4.25A4.25 4.25 0 1 1 13 17.25z"
            stroke-width="1.5" stroke="currentColor" />
    </svg>
</svg>